<?xml version="1.0" encoding="iso-8859-1"?>
<!-- Uploaded to: SVG Repo, www.svgrepo.com, Generator: SVG Repo Mixer Tools -->
<svg height="800px" width="800px" version="1.1" id="Layer_1" xmlns="http://www.w3.org/2000/svg" xmlns:xlink="http://www.w3.org/1999/xlink" 
	 viewBox="0 0 511.999 511.999" xml:space="preserve">
<polygon style="fill:#D85C72;" points="400.87,293.635 111.13,293.635 146.436,503.933 365.562,503.933 "/>
<g>
	<polygon style="fill:#B04C5C;" points="287.99,293.635 224.012,293.635 231.737,503.933 280.263,503.933 	"/>
	<polygon style="fill:#B04C5C;" points="400.654,293.635 368.881,293.635 341.627,503.933 365.727,503.933 	"/>
	<polygon style="fill:#B04C5C;" points="111.344,293.635 143.112,293.635 170.371,503.933 146.273,503.933 	"/>
</g>
<path style="fill:#4D3D2E;" d="M409.82,229.713c-21.728-64.09-82.388-110.214-153.82-110.214s-132.092,46.124-153.823,110.214
	c-27.033,5.763-47.316,29.771-47.316,58.527c0,33.055,26.796,59.851,59.851,59.851c19.125,0,36.14-8.98,47.094-22.941
	c10.959,13.961,27.975,22.941,47.097,22.941c19.125,0,36.14-8.98,47.097-22.941c10.958,13.961,27.972,22.941,47.094,22.941
	c19.125,0,36.142-8.98,47.097-22.941c10.958,13.961,27.974,22.941,47.097,22.941c33.055,0,59.851-26.797,59.851-59.851
	C457.139,259.484,436.855,235.475,409.82,229.713z"/>
<path style="fill:#FFB819;" d="M279.205,57.53c0-12.816-23.205-49.463-23.205-49.463s-23.205,36.647-23.205,49.463
	c0,12.817,10.388,23.207,23.205,23.207C268.817,80.737,279.205,70.346,279.205,57.53z"/>
<g>
	<circle style="fill:#00BCB4;" cx="153.691" cy="211.708" r="16.679"/>
	<circle style="fill:#00BCB4;" cx="319.772" cy="303.025" r="16.68"/>
	<circle style="fill:#00BCB4;" cx="337.433" cy="168.147" r="16.679"/>
	<circle style="fill:#00BCB4;" cx="243.244" cy="257.431" r="16.678"/>
</g>
<g>
	<circle style="fill:#FFB819;" cx="92.146" cy="266.842" r="16.679"/>
	<circle style="fill:#FFB819;" cx="200.909" cy="165.199" r="16.679"/>
	<circle style="fill:#FFB819;" cx="349.716" cy="235.65" r="16.68"/>
</g>
<g>
	<circle style="fill:#D85C72;" cx="174.568" cy="288.236" r="16.679"/>
	<circle style="fill:#D85C72;" cx="418.382" cy="265.423" r="16.679"/>
	<circle style="fill:#D85C72;" cx="279.201" cy="200.694" r="16.678"/>
</g>
<path style="fill:#022A3A;" d="M256.001,88.804c17.243,0,31.272-14.029,31.272-31.274c0-4.312-1.303-12.462-12.568-33.365
	c-5.868-10.888-11.645-20.031-11.888-20.414C261.338,1.415,258.765,0,256.001,0c-2.764,0-5.337,1.415-6.816,3.752
	c-0.243,0.384-6.02,9.526-11.888,20.414c-11.266,20.902-12.568,29.052-12.568,33.365C224.729,74.774,238.758,88.804,256.001,88.804z
	 M256.001,23.692c8.122,14.129,15.138,28.769,15.138,33.838c0,8.348-6.791,15.14-15.138,15.14c-8.347,0-15.138-6.791-15.138-15.14
	C240.863,52.46,247.879,37.821,256.001,23.692z M243.246,232.681c-13.645,0-24.746,11.101-24.746,24.746
	c0,13.645,11.101,24.746,24.746,24.746c13.644,0,24.744-11.101,24.744-24.746C267.99,243.782,256.89,232.681,243.246,232.681z
	 M243.246,266.039c-4.749,0-8.612-3.863-8.612-8.612s3.864-8.612,8.612-8.612c4.748,0,8.61,3.863,8.61,8.612
	C251.856,262.175,247.994,266.039,243.246,266.039z M349.722,210.908c-13.646,0-24.747,11.101-24.747,24.746
	c0,13.646,11.101,24.747,24.747,24.747c13.647,0,24.748-11.101,24.748-24.747C374.469,222.009,363.368,210.908,349.722,210.908z
	 M349.722,244.267c-4.749,0-8.613-3.863-8.613-8.613c0-4.749,3.865-8.612,8.613-8.612c4.75,0,8.614,3.864,8.614,8.612
	C358.335,240.403,354.472,244.267,349.722,244.267z M319.774,278.28c-13.645,0-24.747,11.101-24.747,24.746
	c0,13.644,11.101,24.745,24.747,24.745c13.647,0,24.748-11.101,24.748-24.745C344.522,289.381,333.42,278.28,319.774,278.28z
	 M319.774,311.639c-4.749,0-8.613-3.864-8.613-8.611c0-4.749,3.865-8.612,8.613-8.612c4.75,0,8.614,3.864,8.614,8.612
	C328.389,307.775,324.524,311.639,319.774,311.639z M178.438,211.71c0-13.645-11.1-24.746-24.744-24.746
	c-13.647,0-24.748,11.101-24.748,24.746c0,13.646,11.101,24.747,24.748,24.747C167.338,236.456,178.438,225.355,178.438,211.71z
	 M145.081,211.71c0-4.749,3.865-8.612,8.614-8.612c4.748,0,8.61,3.864,8.61,8.612c0,4.75-3.862,8.613-8.61,8.613
	C148.945,220.322,145.081,216.459,145.081,211.71z M415.981,222.941c-23.689-64.363-83.6-108.104-151.915-111.311V95.542h-16.134
	v16.088c-68.314,3.208-128.225,46.949-151.916,111.311c-28.782,8.243-49.222,34.997-49.222,65.299
	c0,37.023,29.782,67.202,66.646,67.886l25.04,149.142c0.652,3.885,4.015,6.731,7.955,6.731h219.127c3.94,0,7.303-2.846,7.955-6.731
	l25.041-149.142c36.864-0.683,66.647-30.862,66.647-67.886C465.206,257.938,444.765,231.182,415.981,222.941z M426.997,265.423
	c0,4.749-3.865,8.612-8.613,8.612s-8.612-3.863-8.612-8.612c0-4.749,3.864-8.612,8.612-8.612
	C423.133,256.809,426.997,260.673,426.997,265.423z M337.439,159.534c4.748,0,8.611,3.863,8.611,8.612
	c0,4.749-3.864,8.612-8.611,8.612c-4.749,0-8.613-3.863-8.613-8.612S332.69,159.534,337.439,159.534z M92.146,258.228
	c4.748,0,8.61,3.863,8.61,8.613c0,4.749-3.862,8.612-8.61,8.612c-4.75,0-8.614-3.864-8.614-8.612
	C83.531,262.092,87.396,258.228,92.146,258.228z M153.26,495.866L129.53,354.524c4.415-0.979,8.698-2.389,12.794-4.212
	l18.867,145.554L153.26,495.866L153.26,495.866z M177.459,495.866l-20.064-154.801c1.518-1.233,2.996-2.525,4.413-3.896
	c12.588,12.164,29.302,18.988,47.096,18.988c3.143,0,6.25-0.224,9.308-0.642l5.157,140.349h-45.91V495.866z M272.487,495.866
	h-32.973l-5.311-144.564c8.054-3.229,15.451-8,21.798-14.133c6.346,6.133,13.743,10.905,21.798,14.133L272.487,495.866z
	 M288.632,495.866l5.157-140.349c3.058,0.417,6.163,0.641,9.305,0.641c17.799,0,34.512-6.824,47.098-18.988
	c1.417,1.369,2.892,2.66,4.41,3.893L334.54,495.866L288.632,495.866L288.632,495.866z M358.736,495.866h-7.93l18.865-145.556
	c4.098,1.823,8.381,3.234,12.797,4.213L358.736,495.866z M397.288,340.024c-15.994,0-30.848-7.238-40.752-19.854
	c-1.529-1.949-3.869-3.087-6.346-3.087c-2.477,0-4.816,1.139-6.345,3.087c-9.9,12.618-24.754,19.854-40.751,19.854
	c-15.992,0-30.845-7.238-40.749-19.854c-1.529-1.949-3.869-3.087-6.345-3.087c-2.476,0-4.818,1.138-6.345,3.087
	c-9.904,12.618-24.758,19.854-40.752,19.854c-15.992,0-30.846-7.238-40.752-19.855c-1.529-1.948-3.87-3.086-6.346-3.086
	c-2.477,0-4.816,1.139-6.345,3.087c-9.9,12.618-24.752,19.854-40.748,19.854c-28.555,0-51.784-23.231-51.784-51.784
	c0-7.384,1.599-14.487,4.481-20.946c0.244,13.436,11.242,24.292,24.736,24.292c13.644,0,24.744-11.101,24.744-24.746
	c0-13.646-11.1-24.747-24.744-24.747c-0.322,0-0.639,0.012-0.957,0.024c3.944-2.024,8.191-3.561,12.67-4.515
	c2.781-0.593,5.045-2.606,5.958-5.299c20.374-60.089,75.256-101.259,138.115-104.521v14.855h16.134V127.78
	c22.745,1.181,44.444,7.322,63.844,17.529c-8.928,3.74-15.217,12.567-15.217,22.837c0,13.645,11.101,24.746,24.747,24.746
	c13.094,0,23.838-10.225,24.685-23.108c17.849,16.882,31.793,38.144,40.057,62.52c0.913,2.693,3.176,4.707,5.958,5.299
	c3.35,0.714,6.566,1.763,9.628,3.088c-13.359,0.33-24.128,11.293-24.128,24.731c0,13.645,11.101,24.746,24.746,24.746
	c13.646,0,24.747-11.101,24.747-24.746c0-0.4-0.012-0.797-0.03-1.192c3.818,7.244,5.971,15.438,5.971,24.009
	C449.072,316.794,425.841,340.024,397.288,340.024z M174.562,263.494c-13.645,0-24.745,11.101-24.745,24.746
	c0,13.645,11.1,24.746,24.745,24.746s24.747-11.101,24.747-24.746C199.31,274.595,188.207,263.494,174.562,263.494z
	 M174.562,296.852c-4.748,0-8.611-3.864-8.611-8.612c0-4.749,3.863-8.612,8.611-8.612c4.749,0,8.613,3.864,8.613,8.612
	C183.176,292.989,179.311,296.852,174.562,296.852z M303.95,200.691c0-13.645-11.1-24.746-24.745-24.746
	c-13.644,0-24.746,11.101-24.746,24.746c0,13.645,11.101,24.746,24.746,24.746C292.85,225.438,303.95,214.335,303.95,200.691z
	 M279.205,209.304c-4.749,0-8.612-3.864-8.612-8.612s3.863-8.612,8.612-8.612c4.748,0,8.611,3.864,8.611,8.612
	C287.816,205.44,283.953,209.304,279.205,209.304z M200.909,140.458c-13.646,0-24.747,11.101-24.747,24.746
	c0,13.645,11.101,24.746,24.747,24.746c13.645,0,24.745-11.101,24.745-24.746C225.654,151.559,214.554,140.458,200.909,140.458z
	 M200.909,173.816c-4.749,0-8.613-3.864-8.613-8.612s3.865-8.612,8.613-8.612c4.748,0,8.611,3.864,8.611,8.612
	C209.52,169.952,205.657,173.816,200.909,173.816z"/>
</svg>